<svg width="51" height="51" viewBox="0 0 51 51" fill="none" xmlns="http://www.w3.org/2000/svg">
<path d="M9 37L9 29.6C9 28.8044 8.68393 28.0413 8.12132 27.4787C7.55871 26.9161 6.79565 26.6 6 26.6L5 26.6L5 23.4L6 23.4C6.39397 23.4 6.78407 23.3224 7.14805 23.1716C7.51203 23.0209 7.84274 22.7999 8.12132 22.5213C8.3999 22.2427 8.62087 21.912 8.77164 21.548C8.9224 21.1841 9 20.794 9 20.4L9 13C9 11.4087 9.63214 9.88258 10.7574 8.75736C11.8826 7.63214 13.4087 7 15 7L17 7L17 11L15 11C14.4696 11 13.9609 11.2107 13.5858 11.5858C13.2107 11.9609 13 12.4696 13 13L13 21.2C13.0002 22.042 12.7347 22.8626 12.2413 23.5449C11.7479 24.2272 11.0517 24.7364 10.252 25C11.0517 25.2636 11.7479 25.7728 12.2413 26.4551C12.7347 27.1374 13.0002 27.958 13 28.8L13 37C13 37.5304 13.2107 38.0391 13.5858 38.4142C13.9609 38.7893 14.4696 39 15 39L17 39L17 43L15 43C13.4087 43 11.8826 42.3679 10.7574 41.2426C9.63214 40.1174 9 38.5913 9 37ZM41 29.6L41 37C41 38.5913 40.3679 40.1174 39.2426 41.2426C38.1174 42.3679 36.5913 43 35 43L33 43L33 39L35 39C35.5304 39 36.0391 38.7893 36.4142 38.4142C36.7893 38.0391 37 37.5304 37 37L37 28.8C36.9998 27.958 37.2653 27.1374 37.7587 26.4551C38.2521 25.7728 38.9483 25.2636 39.748 25C38.9483 24.7364 38.2521 24.2272 37.7587 23.5449C37.2653 22.8626 36.9998 22.042 37 21.2L37 13C37 12.4696 36.7893 11.9609 36.4142 11.5858C36.0391 11.2107 35.5304 11 35 11L33 11L33 7L35 7C36.5913 7 38.1174 7.63214 39.2426 8.75736C40.3679 9.88258 41 11.4087 41 13L41 20.4C41 21.1956 41.3161 21.9587 41.8787 22.5213C42.4413 23.0839 43.2043 23.4 44 23.4L45 23.4L45 26.6L44 26.6C43.2043 26.6 42.4413 26.9161 41.8787 27.4787C41.3161 28.0413 41 28.8044 41 29.6Z" fill="white"/>
</svg>
