<svg width="51" height="51" viewBox="0 0 51 51" fill="none" xmlns="http://www.w3.org/2000/svg">
<path d="M11 40L13.828 40L32.456 21.372L29.628 18.544L11 37.172L11 40ZM43 44L7 44L7 35.514L33.87 8.64404C34.2451 8.2691 34.7537 8.05847 35.284 8.05847C35.8143 8.05847 36.3229 8.2691 36.698 8.64404L42.356 14.302C42.7309 14.6771 42.9416 15.1857 42.9416 15.716C42.9416 16.2464 42.7309 16.755 42.356 17.13L19.486 40L43 40L43 44ZM32.456 15.716L35.284 18.544L38.112 15.716L35.284 12.888L32.456 15.716Z" fill="white"/>
</svg>
