<svg width="51" height="51" viewBox="0 0 51 51" fill="none" xmlns="http://www.w3.org/2000/svg">
<path d="M25 5C36.046 5 45 13.954 45 25C45 36.046 36.046 45 25 45C13.954 45 5 36.046 5 25C5 13.954 13.954 5 25 5ZM25 9C20.7565 9 16.6869 10.6857 13.6863 13.6863C10.6857 16.6869 9 20.7565 9 25C9 29.2435 10.6857 33.3131 13.6863 36.3137C16.6869 39.3143 20.7565 41 25 41C29.2435 41 33.3131 39.3143 36.3137 36.3137C39.3143 33.3131 41 29.2435 41 25C41 20.7565 39.3143 16.6869 36.3137 13.6863C33.3131 10.6857 29.2435 9 25 9ZM25 15C27.1052 15.0008 29.1564 15.6659 30.8614 16.9007C32.5665 18.1354 33.8384 19.8767 34.4959 21.8766C35.1534 23.8764 35.1631 26.0328 34.5234 28.0384C33.8838 30.0441 32.6275 31.7967 30.9335 33.0466C29.2396 34.2965 27.1944 34.98 25.0893 34.9996C22.9842 35.0192 20.9266 34.3739 19.2097 33.1558C17.4928 31.9376 16.2041 30.2087 15.5272 28.2153C14.8503 26.2219 14.8198 24.0657 15.44 22.054C15.9078 23.0994 16.7205 23.9524 17.7421 24.4703C18.7637 24.9882 19.9321 25.1395 21.0519 24.8989C22.1717 24.6583 23.1748 24.0404 23.8935 23.1487C24.6122 22.2569 25.0028 21.1453 25 20C25.0003 19.0369 24.7224 18.0943 24.1998 17.2854C23.6772 16.4764 22.9321 15.8356 22.054 15.44C22.986 15.154 23.974 15 25 15Z" fill="white"/>
</svg>
