<svg width="51" height="52" viewBox="0 0 51 52" fill="none" xmlns="http://www.w3.org/2000/svg">
<path d="M38.9998 44L10.9998 44C10.4693 44 9.96062 43.7892 9.58554 43.4142C9.21047 43.0391 8.99976 42.5304 8.99976 42L8.99976 24L2.99976 24L23.6538 5.22396C24.022 4.88892 24.5019 4.70325 24.9998 4.70325C25.4976 4.70325 25.9775 4.88892 26.3458 5.22396L46.9998 24L40.9998 24L40.9998 42C40.9998 42.5304 40.789 43.0391 40.414 43.4142C40.0389 43.7892 39.5302 44 38.9998 44ZM26.9998 40L36.9998 40L36.9998 20.314L24.9998 9.40596L12.9998 20.314L12.9998 40L22.9998 40L22.9998 28L26.9998 28L26.9998 40Z" fill="white"/>
</svg>
