<svg width="51" height="52" viewBox="0 0 51 52" fill="none" xmlns="http://www.w3.org/2000/svg">
<path d="M41 46L9 46C8.46957 46 7.96086 45.7893 7.58579 45.4142C7.21071 45.0391 7 44.5304 7 44L7 8C7 7.46957 7.21071 6.96086 7.58579 6.58579C7.96086 6.21071 8.46957 6 9 6L41 6C41.5304 6 42.0391 6.21071 42.4142 6.58579C42.7893 6.96086 43 7.46957 43 8L43 44C43 44.5304 42.7893 45.0391 42.4142 45.4142C42.0391 45.7893 41.5304 46 41 46ZM39 42L39 10L11 10L11 42L39 42ZM15 14L23 14L23 22L15 22L15 14ZM15 26L35 26L35 30L15 30L15 26ZM15 34L35 34L35 38L15 38L15 34ZM27 16L35 16L35 20L27 20L27 16Z" fill="white"/>
</svg>
