<svg width="51" height="51" viewBox="0 0 51 51" fill="none" xmlns="http://www.w3.org/2000/svg">
<path d="M15 12L15 6C15 5.46957 15.2107 4.96086 15.5858 4.58579C15.9609 4.21071 16.4696 4 17 4L33 4C33.5304 4 34.0391 4.21071 34.4142 4.58579C34.7893 4.96086 35 5.46957 35 6L35 12L43 12C43.5304 12 44.0391 12.2107 44.4142 12.5858C44.7893 12.9609 45 13.4696 45 14L45 42C45 42.5304 44.7893 43.0391 44.4142 43.4142C44.0391 43.7893 43.5304 44 43 44L7 44C6.46957 44 5.96086 43.7893 5.58579 43.4142C5.21071 43.0391 5 42.5304 5 42L5 14C5 13.4696 5.21071 12.9609 5.58579 12.5858C5.96086 12.2107 6.46957 12 7 12L15 12ZM9 34L9 40L41 40L41 34L9 34ZM9 30L41 30L41 16L9 16L9 30ZM19 8L19 12L31 12L31 8L19 8ZM23 24L27 24L27 28L23 28L23 24Z" fill="white"/>
</svg>
