<svg width="51" height="51" viewBox="0 0 51 51" fill="none" xmlns="http://www.w3.org/2000/svg">
<path d="M41 45L37 45L37 41C37 39.4087 36.3679 37.8826 35.2426 36.7574C34.1174 35.6321 32.5913 35 31 35L19 35C17.4087 35 15.8826 35.6321 14.7574 36.7574C13.6321 37.8826 13 39.4087 13 41L13 45L9 45L9 41C9 38.3478 10.0536 35.8043 11.9289 33.9289C13.8043 32.0536 16.3478 31 19 31L31 31C33.6522 31 36.1957 32.0536 38.0711 33.9289C39.9464 35.8043 41 38.3478 41 41L41 45ZM25 27C23.4241 27 21.8637 26.6896 20.4078 26.0866C18.9519 25.4835 17.629 24.5996 16.5147 23.4853C15.4004 22.371 14.5165 21.0481 13.9134 19.5922C13.3104 18.1363 13 16.5759 13 15C13 13.4241 13.3104 11.8637 13.9134 10.4078C14.5165 8.95189 15.4004 7.62902 16.5147 6.51472C17.629 5.40042 18.9519 4.5165 20.4078 3.91345C21.8637 3.31039 23.4241 3 25 3C28.1826 3 31.2348 4.26428 33.4853 6.51472C35.7357 8.76516 37 11.8174 37 15C37 18.1826 35.7357 21.2348 33.4853 23.4853C31.2348 25.7357 28.1826 27 25 27ZM25 23C27.1217 23 29.1566 22.1571 30.6569 20.6569C32.1571 19.1566 33 17.1217 33 15C33 12.8783 32.1571 10.8434 30.6569 9.34315C29.1566 7.84285 27.1217 7 25 7C22.8783 7 20.8434 7.84285 19.3431 9.34315C17.8429 10.8434 17 12.8783 17 15C17 17.1217 17.8429 19.1566 19.3431 20.6569C20.8434 22.1571 22.8783 23 25 23Z" fill="white"/>
</svg>
